<svg width="60mm" height="60mm" viewBox="0 0 60 60" xml:space="preserve" xmlns="http://www.w3.org/2000/svg"><path style="fill:#0ac8f5;fill-opacity:1;stroke:#000;stroke-width:.307622;stroke-linejoin:round;stroke-dasharray:none;stroke-opacity:1" transform="matrix(.95106 .30902 0 1 -25.683 -21.248)" d="M42.18 56.255h4.486v5.036H42.18zM37.694 56.255h4.486v5.036h-4.486zM33.208 56.255h4.486v5.036h-4.486zM33.208 51.219h4.486v5.036h-4.486zM28.722 51.219h4.486v5.036h-4.486z"/><path style="fill:#d2f00f;fill-opacity:1;stroke:#000;stroke-width:.3;stroke-linecap:butt;stroke-linejoin:round;stroke-dasharray:none;stroke-opacity:1;paint-order:normal" d="m40.115 69.29 4.267 1.386 3.878-1.006-4.269-1.403z" transform="translate(-25.683 -21.248)"/><path style="fill:#0ac8f5;fill-opacity:1;stroke:#000;stroke-width:.307622;stroke-linejoin:round;stroke-dasharray:none;stroke-opacity:1" transform="matrix(.95106 .30902 0 1 -25.683 -21.248)" d="M46.666 51.219h4.486v5.036h-4.486z"/><path style="fill:#d2f00f;fill-opacity:1;stroke:#000;stroke-width:.302532;stroke-linejoin:round;stroke-dasharray:none;stroke-opacity:1" transform="matrix(.96795 -.25114 0 1 -25.683 -21.248)" d="M50.259 84.684h4.007v5.059h-4.007z"/><path style="fill:#0ac8f5;fill-opacity:1;stroke:#000;stroke-width:.307622;stroke-linejoin:round;stroke-dasharray:none;stroke-opacity:1" transform="matrix(.95106 .30902 0 1 -25.683 -21.248)" d="M51.152 51.219h4.486v5.036h-4.486zM51.152 46.182h4.486v5.036h-4.486z"/><path style="fill:#d2f00f;fill-opacity:1;stroke:#000;stroke-width:.305092;stroke-linejoin:round;stroke-dasharray:none;stroke-opacity:1" transform="matrix(.9669 -.25517 0 1 -25.683 -21.248)" d="M50.314 69.791h4.009v5.143h-4.009zM45.901 62.243h4.009v5.143h-4.009zM41.489 54.694h4.009v5.143h-4.009zM37.076 47.145h4.009v5.143h-4.009z"/><path style="fill:#d2f00f;fill-opacity:1;stroke:#000;stroke-width:.305092;stroke-linejoin:round;stroke-dasharray:none;stroke-opacity:1" transform="matrix(.9669 -.25517 0 1 -25.683 -21.248)" d="M37.076 42.003h4.009v5.143h-4.009zM50.314 44.609h4.009v5.143h-4.009z"/><path style="fill:#d2f00f;fill-opacity:1;stroke:#000;stroke-width:.302532;stroke-linejoin:round;stroke-dasharray:none;stroke-opacity:1" transform="matrix(.96795 -.25114 0 1 -25.683 -21.248)" d="M54.667 51.922h4.007v5.059h-4.007zM54.667 77.105h4.007v5.059h-4.007z"/><path style="fill:#d2f00f;fill-opacity:1;stroke:#000;stroke-width:.302532;stroke-linejoin:round;stroke-dasharray:none;stroke-opacity:1" transform="matrix(.96795 -.25114 0 1 -25.683 -21.248)" d="M54.667 82.141h4.007V87.2h-4.007zM37.035 72.137h4.007v5.059h-4.007z"/><path style="fill:#d2f00f;fill-opacity:1;stroke:#000;stroke-width:.3;stroke-linecap:butt;stroke-linejoin:round;stroke-dasharray:none;stroke-opacity:1;paint-order:normal" d="m35.849 67.903 4.266 1.387 3.879-1.007-4.269-1.403z" transform="translate(-25.683 -21.248)"/><path style="fill:#0ac8f5;fill-opacity:1;stroke:#000;stroke-width:.307622;stroke-linejoin:round;stroke-dasharray:none;stroke-opacity:1" transform="matrix(.95106 .30902 0 1 -25.683 -21.248)" d="M46.666 46.182h4.486v5.036h-4.486zM46.666 41.146h4.486v5.036h-4.486zM42.18 41.146h4.486v5.036H42.18zM42.18 36.109h4.486v5.036H42.18zM37.694 36.109h4.486v5.036h-4.486zM37.694 31.073h4.486v5.036h-4.486zM33.208 31.073h4.486v5.036h-4.486zM33.208 26.037h4.486v5.036h-4.486zM28.722 26.037h4.486v5.036h-4.486zM33.208 21h4.486v5.036h-4.486zM28.722 21h4.486v5.036h-4.486z"/><path style="fill:#d2f00f;fill-opacity:1;stroke:#000;stroke-width:.3;stroke-linecap:butt;stroke-linejoin:round;stroke-dasharray:none;stroke-opacity:1;paint-order:normal" d="m27.316 29.876 4.266 1.386 3.879-1.006-4.269-1.403z" transform="translate(-25.683 -21.248)"/><path style="fill:#0ac8f5;fill-opacity:1;stroke:#000;stroke-width:.307622;stroke-linejoin:round;stroke-dasharray:none;stroke-opacity:1" transform="matrix(.95106 .30902 0 1 -25.683 -21.248)" d="M33.208 15.964h4.486V21h-4.486zM37.694 15.964h4.486V21h-4.486zM42.18 15.964h4.486V21H42.18zM46.666 15.964h4.486V21h-4.486zM46.666 21h4.486v5.036h-4.486zM51.152 21h4.486v5.036h-4.486zM46.666 56.255h4.486v5.036h-4.486z"/><path style="fill:#d2f00f;fill-opacity:1;stroke:#000;stroke-width:.3;stroke-linecap:butt;stroke-linejoin:round;stroke-dasharray:none;stroke-opacity:1;paint-order:normal" d="m48.648 36.807 4.267 1.386 3.878-1.006-4.269-1.403zM44.382 30.384l4.266 1.386 3.879-1.006-4.27-1.403z" transform="translate(-25.683 -21.248)"/><path style="fill:#d2f00f;fill-opacity:1;stroke:#000;stroke-width:.3;stroke-linecap:butt;stroke-linejoin:round;stroke-dasharray:none;stroke-opacity:1;paint-order:normal" d="m40.115 28.998 4.267 1.386 3.878-1.006-4.269-1.403z" transform="translate(-25.683 -21.248)"/><path style="fill:#d2f00f;fill-opacity:1;stroke:#000;stroke-width:.3;stroke-linecap:butt;stroke-linejoin:round;stroke-dasharray:none;stroke-opacity:1;paint-order:normal" d="m35.849 27.612 4.266 1.386 3.879-1.006-4.269-1.403z" transform="translate(-25.683 -21.248)"/><path style="fill:#d2f00f;fill-opacity:1;stroke:#000;stroke-width:.3;stroke-linecap:butt;stroke-linejoin:round;stroke-dasharray:none;stroke-opacity:1;paint-order:normal" d="m31.582 26.225 4.267 1.387 3.878-1.007-4.268-1.402zM35.849 42.721l4.266 1.386 3.879-1.006-4.269-1.403zM40.115 49.144l4.267 1.386 3.878-1.006-4.269-1.403zM44.382 55.566l4.266 1.387 3.879-1.007-4.27-1.402zM48.648 61.99l4.267 1.385 3.878-1.006-4.269-1.403zM31.582 61.48l4.267 1.387 3.878-1.006-4.268-1.403z" transform="translate(-25.683 -21.248)"/><path style="fill:#d2f00f;fill-opacity:1;stroke:#000;stroke-width:.3;stroke-linecap:butt;stroke-linejoin:round;stroke-dasharray:none;stroke-opacity:1;paint-order:normal" d="m27.315 60.086 4.266 1.386 3.879-1.006-4.27-1.403z" transform="translate(-25.683 -21.248)"/><path style="fill:#d2f00f;fill-opacity:1;stroke:#000;stroke-width:.3;stroke-linecap:butt;stroke-linejoin:round;stroke-dasharray:none;stroke-opacity:1;paint-order:normal" d="m116.971 103.09 4.267 1.386 3.878-1.006-4.269-1.403zM120.8 102.04l4.266 1.387 3.878-1.006-4.269-1.403z" transform="translate(-77.683 -53.97)"/><path style="fill:#d2f00f;fill-opacity:1;stroke:#000;stroke-width:.301722;stroke-linejoin:round;stroke-dasharray:none;stroke-opacity:1" transform="matrix(.96819 -.25023 0 1 -77.683 -53.97)" d="M121.168 135.751h4.003v5.036h-4.003zM125.172 135.751h4.003v5.036h-4.003zM129.175 135.751h4.003v5.036h-4.003zM133.179 135.751h4.003v5.036h-4.003z"/><path style="fill:#d2f00f;fill-opacity:1;stroke:#000;stroke-width:.301722;stroke-linejoin:round;stroke-dasharray:none;stroke-opacity:1" transform="matrix(.96819 -.25023 0 1 -77.683 -53.97)" d="M137.182 135.751h4.003v5.036h-4.003zM121.168 130.714h4.003v5.036h-4.003zM121.168 125.678h4.003v5.036h-4.003zM121.168 120.641h4.003v5.036h-4.003zM121.168 115.605h4.003v5.036h-4.003z"/><path style="fill:#0ac8f5;fill-opacity:1;stroke:#000;stroke-width:.307622;stroke-linejoin:round;stroke-dasharray:none;stroke-opacity:1" transform="matrix(.95106 .30902 0 1 -77.683 -53.97)" d="M118.865 62.277h4.486v5.036h-4.486zM118.865 57.24h4.486v5.036h-4.486zM118.865 52.204h4.486v5.036h-4.486zM118.865 47.167h4.486v5.036h-4.486zM118.865 42.131h4.486v5.036h-4.486zM118.865 37.094h4.486v5.036h-4.486zM118.865 32.058h4.486v5.036h-4.486zM118.865 27.022h4.486v5.036h-4.486zM118.865 67.313h4.486v5.036h-4.486z"/><path style="fill:#d2f00f;fill-opacity:1;stroke:#000;stroke-width:.3;stroke-linecap:butt;stroke-linejoin:round;stroke-dasharray:none;stroke-opacity:1;paint-order:normal" d="m113.047 63.753 4.267 1.386 3.878-1.006-4.269-1.403z" transform="translate(-77.683 -53.97)"/><path style="fill:#d2f00f;fill-opacity:1;stroke:#000;stroke-width:.301722;stroke-linejoin:round;stroke-dasharray:none;stroke-opacity:1" transform="matrix(.96819 -.25023 0 1 -77.683 -53.97)" d="M121.168 110.568h4.003v5.036h-4.003zM121.168 105.532h4.003v5.036h-4.003zM121.168 100.496h4.003v5.036h-4.003zM121.168 95.459h4.003v5.036h-4.003z"/><path style="fill:#d2f00f;fill-opacity:1;stroke:#000;stroke-width:.3;stroke-linecap:butt;stroke-linejoin:round;stroke-dasharray:none;stroke-opacity:1;paint-order:normal" d="m124.678 101.035 4.266 1.386 3.878-1.006-4.268-1.403z" transform="translate(-77.683 -53.97)"/><path style="fill:#d2f00f;fill-opacity:1;stroke:#000;stroke-width:.3;stroke-linecap:butt;stroke-linejoin:round;stroke-dasharray:none;stroke-opacity:1;paint-order:normal" d="m128.556 100.028 4.266 1.387 3.879-1.007-4.27-1.403z" transform="translate(-77.683 -53.97)"/></svg>